<svg id="vuesax_outline_edit-2" data-name="vuesax/outline/edit-2" xmlns="http://www.w3.org/2000/svg" width="20" height="20" viewBox="0 0 20 20">
  <g id="edit-2">
    <path id="Vector" d="M1.907,15.078a1.909,1.909,0,0,1-1.325-.5,1.985,1.985,0,0,1-.567-1.692l.308-2.7a3,3,0,0,1,.725-1.55L7.89,1.395c1.708-1.808,3.492-1.858,5.3-.15s1.858,3.492.15,5.3L6.5,13.786a3,3,0,0,1-1.508.808l-2.683.458C2.165,15.061,2.04,15.078,1.907,15.078ZM10.565,1.236a2.546,2.546,0,0,0-1.767,1L1.957,9.486a1.924,1.924,0,0,0-.392.833l-.308,2.7a.732.732,0,0,0,.183.642.751.751,0,0,0,.65.15l2.683-.458a1.862,1.862,0,0,0,.808-.433l6.842-7.242c1.033-1.1,1.408-2.117-.1-3.533A2.635,2.635,0,0,0,10.565,1.236Z" transform="translate(2.71 1.189)" fill="#fff"/>
    <path id="Vector-2" data-name="Vector" d="M5.157,5.54H5.1A5.716,5.716,0,0,1,.007.723.635.635,0,0,1,.532.007a.635.635,0,0,1,.717.525A4.477,4.477,0,0,0,5.232,4.3a.626.626,0,0,1,.558.683A.645.645,0,0,1,5.157,5.54Z" transform="translate(9.293 3.585)" fill="#fff"/>
    <path id="Vector-3" data-name="Vector" d="M15.625,1.25h-15A.63.63,0,0,1,0,.625.63.63,0,0,1,.625,0h15a.63.63,0,0,1,.625.625A.63.63,0,0,1,15.625,1.25Z" transform="translate(1.875 17.708)" fill="#fff"/>
    <path id="Vector-4" data-name="Vector" d="M0,0H20V20H0Z" fill="none" opacity="0"/>
  </g>
</svg>
