<svg id="Group_15" data-name="Group 15" xmlns="http://www.w3.org/2000/svg" width="24" height="24" viewBox="0 0 24 24">
  <g id="arrow-square-left_bulk" data-name="arrow-square-left/bulk">
    <g id="vuesax_bulk_arrow-square-left" data-name="vuesax/bulk/arrow-square-left">
      <g id="arrow-square-left">
        <path id="Vector" d="M14.19,0H5.81C2.17,0,0,2.17,0,5.81v8.37C0,17.83,2.17,20,5.81,20h8.37c3.64,0,5.81-2.17,5.81-5.81V5.81C20,2.17,17.83,0,14.19,0Z" transform="translate(2 2)" fill="#AE926B" opacity="0.4"/>
        <path id="Vector-2" data-name="Vector" d="M4.278,8.558a.742.742,0,0,1-.53-.22L.218,4.807a.754.754,0,0,1,0-1.06L3.747.218a.75.75,0,0,1,1.06,1.06l-3,3,3,3a.754.754,0,0,1,0,1.06A.71.71,0,0,1,4.278,8.558Z" transform="translate(8.983 7.722)" fill="#AE926B"/>
        <path id="Vector-3" data-name="Vector" d="M0,0H24V24H0Z" fill="none" opacity="0"/>
      </g>
    </g>
  </g>
</svg>
