<svg width="80" height="80" viewBox="0 0 80 80" fill="none" xmlns="http://www.w3.org/2000/svg">
<g clip-path="url(#clip0_444_6)">
<path d="M78.2 49.532C79.1065 48.5213 79.7009 47.2696 79.9112 45.9283C80.1214 44.587 79.9387 43.2135 79.3849 41.9739C78.8312 40.7343 77.9301 39.6816 76.7908 38.9432C75.6515 38.2048 74.3227 37.8122 72.965 37.813H58.1C60.1929 32.201 61.2599 26.2585 61.25 20.269V16.719C61.25 14.8542 60.5092 13.0659 59.1907 11.7473C57.8721 10.4288 56.0837 9.68799 54.219 9.68799C52.3543 9.68799 50.5659 10.4288 49.2473 11.7473C47.9288 13.0659 47.188 14.8542 47.188 16.719C47.1953 19.3846 46.6738 22.0251 45.6537 24.4878C44.6335 26.9505 43.1351 29.1864 41.245 31.066L34.5 37.813H33.125V35.469C33.125 34.8473 32.878 34.2511 32.4385 33.8115C31.9989 33.3719 31.4027 33.125 30.781 33.125H23.75V30.782C23.75 30.1603 23.503 29.5641 23.0635 29.1245C22.6239 28.6849 22.0277 28.438 21.406 28.438H2.344C1.72233 28.438 1.12613 28.6849 0.686542 29.1245C0.246956 29.5641 0 30.1603 0 30.782L0 77.657C0 78.2786 0.246956 78.8749 0.686542 79.3145C1.12613 79.754 1.72233 80.001 2.344 80.001H21.406C22.0277 80.001 22.6239 79.754 23.0635 79.3145C23.503 78.8749 23.75 78.2786 23.75 77.657V75.313H30.781C31.2582 75.3128 31.7239 75.1668 32.1158 74.8946C32.5077 74.6224 32.8071 74.237 32.974 73.79L34.374 75.19C35.896 76.7204 37.7064 77.9337 39.7005 78.7596C41.6946 79.5856 43.8326 80.0079 45.991 80.002H68.281C69.4284 80.0027 70.5586 79.7223 71.5727 79.1855C72.5868 78.6487 73.4541 77.8717 74.0986 76.9224C74.7432 75.9731 75.1455 74.8804 75.2704 73.7397C75.3952 72.5991 75.2389 71.4453 74.815 70.379C75.972 70.0645 77.0292 69.4592 77.8861 68.6206C78.743 67.7819 79.371 66.738 79.7103 65.588C80.0496 64.4381 80.0889 63.2204 79.8246 62.051C79.5602 60.8815 79.0009 59.7992 78.2 58.907C79.3564 57.6195 79.996 55.95 79.996 54.2195C79.996 52.4889 79.3564 50.8195 78.2 49.532V49.532ZM19.063 75.313H4.688V33.126H19.063V75.313ZM28.438 40.157V70.626H23.75V37.813H28.438V40.157ZM58.359 58.907C57.2026 60.1945 56.563 61.8639 56.563 63.5945C56.563 65.325 57.2026 66.9945 58.359 68.282C57.5161 69.2204 56.9419 70.3688 56.6967 71.6061C56.4516 72.8435 56.5446 74.1241 56.966 75.313H45.99C44.4479 75.3169 42.9203 75.015 41.4956 74.4247C40.0709 73.8344 38.7774 72.9674 37.69 71.874L33.127 67.311V42.501H35.471C35.7788 42.5009 36.0835 42.4402 36.3678 42.3223C36.6522 42.2045 36.9105 42.0317 37.128 41.814L44.561 34.381C46.8876 32.0672 48.7323 29.3148 49.988 26.2833C51.2438 23.2518 51.8859 20.0013 51.877 16.72C51.877 16.0983 52.124 15.5021 52.5635 15.0625C53.0031 14.6229 53.5993 14.376 54.221 14.376C54.8427 14.376 55.4389 14.6229 55.8785 15.0625C56.318 15.5021 56.565 16.0983 56.565 16.72V20.27C56.5751 26.7972 55.1766 33.2497 52.465 39.187C52.3028 39.544 52.2327 39.9361 52.2612 40.3272C52.2896 40.7183 52.4157 41.0961 52.6279 41.4259C52.8401 41.7557 53.1317 42.027 53.4758 42.215C53.82 42.403 54.2058 42.5017 54.598 42.502H56.97C56.5486 43.6909 56.4556 44.9715 56.7007 46.2088C56.9459 47.4462 57.5201 48.5945 58.363 49.533C57.2066 50.8205 56.567 52.4899 56.567 54.2205C56.567 55.951 57.2066 57.6205 58.363 58.908L58.359 58.907ZM68.282 75.313H63.594C62.9808 75.3003 62.3971 75.0479 61.9679 74.6097C61.5388 74.1716 61.2984 73.5828 61.2984 72.9695C61.2984 72.3562 61.5388 71.7674 61.9679 71.3292C62.3971 70.8911 62.9808 70.6387 63.594 70.626H68.282C68.9037 70.626 69.4999 70.8729 69.9395 71.3125C70.379 71.7521 70.626 72.3483 70.626 72.97C70.626 73.5917 70.379 74.1879 69.9395 74.6274C69.4999 75.067 68.9037 75.314 68.282 75.314V75.313ZM72.97 65.938H63.594C62.9808 65.9253 62.3971 65.6729 61.9679 65.2347C61.5388 64.7966 61.2984 64.2078 61.2984 63.5945C61.2984 62.9812 61.5388 62.3924 61.9679 61.9542C62.3971 61.5161 62.9808 61.2637 63.594 61.251H72.969C73.5907 61.251 74.1869 61.4979 74.6265 61.9375C75.066 62.3771 75.313 62.9733 75.313 63.595C75.313 64.2167 75.066 64.8129 74.6265 65.2524C74.1869 65.692 73.5907 65.939 72.969 65.939L72.97 65.938ZM72.97 56.563H63.594C62.9808 56.5503 62.3971 56.2979 61.9679 55.8597C61.5388 55.4216 61.2984 54.8328 61.2984 54.2195C61.2984 53.6062 61.5388 53.0174 61.9679 52.5792C62.3971 52.1411 62.9808 51.8887 63.594 51.876H72.969C73.5907 51.876 74.1869 52.1229 74.6265 52.5625C75.066 53.0021 75.313 53.5983 75.313 54.22C75.313 54.8417 75.066 55.4379 74.6265 55.8774C74.1869 56.317 73.5907 56.564 72.969 56.564L72.97 56.563ZM72.97 47.188H63.594C62.9808 47.1753 62.3971 46.9229 61.9679 46.4847C61.5388 46.0466 61.2984 45.4578 61.2984 44.8445C61.2984 44.2312 61.5388 43.6424 61.9679 43.2042C62.3971 42.7661 62.9808 42.5137 63.594 42.501H72.969C73.5907 42.501 74.1869 42.7479 74.6265 43.1875C75.066 43.6271 75.313 44.2233 75.313 44.845C75.313 45.4667 75.066 46.0629 74.6265 46.5024C74.1869 46.942 73.5907 47.189 72.969 47.189L72.97 47.188Z" fill="black"/>
<path d="M12.001 71.001C13.1055 71.001 14.001 69.8817 14.001 68.501C14.001 67.1203 13.1055 66.001 12.001 66.001C10.8964 66.001 10.001 67.1203 10.001 68.501C10.001 69.8817 10.8964 71.001 12.001 71.001Z" fill="black" fill-opacity="0.5"/>
<path d="M63.5 5C64.8807 5 66 3.88071 66 2.5C66 1.11929 64.8807 0 63.5 0C62.1193 0 61 1.11929 61 2.5C61 3.88071 62.1193 5 63.5 5Z" fill="black" fill-opacity="0.5"/>
<path d="M41.222 9.71701L35.678 6.94501L32.901 1.30901C32.707 0.917124 32.4074 0.587255 32.0359 0.356625C31.6644 0.125994 31.2358 0.00378418 30.7985 0.00378418C30.3612 0.00378418 29.9327 0.125994 29.5612 0.356625C29.1897 0.587255 28.89 0.917124 28.696 1.30901L25.92 6.94501L20.376 9.71701C19.9873 9.91222 19.6605 10.2117 19.4321 10.5819C19.2038 10.9521 19.0828 11.3785 19.0828 11.8135C19.0828 12.2485 19.2038 12.6749 19.4321 13.0451C19.6605 13.4154 19.9873 13.7148 20.376 13.91L25.927 16.686L28.703 22.237C28.8982 22.6257 29.1977 22.9525 29.5679 23.1809C29.9381 23.4093 30.3645 23.5302 30.7995 23.5302C31.2345 23.5302 31.6609 23.4093 32.0312 23.1809C32.4014 22.9525 32.7008 22.6257 32.896 22.237L35.672 16.686L41.223 13.91C41.6117 13.7147 41.9384 13.4152 42.1667 13.0449C42.395 12.6746 42.5158 12.2482 42.5157 11.8132C42.5156 11.3782 42.3946 10.9518 42.1661 10.5817C41.9377 10.2115 41.6108 9.91213 41.222 9.71701V9.71701ZM32.876 12.842C32.4225 13.0687 32.0547 13.4365 31.828 13.89L30.799 15.948L29.77 13.89C29.5432 13.4365 29.1755 13.0688 28.722 12.842L26.66 11.813L28.718 10.784C29.1758 10.555 29.546 10.1823 29.772 9.72301L30.795 7.64701L31.818 9.72301C32.0441 10.1823 32.4143 10.5549 32.872 10.784L34.929 11.813L32.876 12.842Z" fill="black" fill-opacity="0.5"/>
<path d="M77.657 19.063H75.313V16.719C75.3003 16.1058 75.0479 15.5221 74.6097 15.0929C74.1716 14.6638 73.5828 14.4234 72.9695 14.4234C72.3562 14.4234 71.7673 14.6638 71.3292 15.0929C70.8911 15.5221 70.6386 16.1058 70.626 16.719V19.063H68.282C67.6603 19.063 67.0641 19.3099 66.6245 19.7495C66.185 20.1891 65.938 20.7853 65.938 21.407C65.938 22.0287 66.185 22.6249 66.6245 23.0645C67.0641 23.504 67.6603 23.751 68.282 23.751H70.626V26.095C70.626 26.7167 70.8729 27.3129 71.3125 27.7524C71.7521 28.192 72.3483 28.439 72.97 28.439C73.5917 28.439 74.1879 28.192 74.6274 27.7524C75.067 27.3129 75.314 26.7167 75.314 26.095V23.751H77.658C78.2711 23.7383 78.8549 23.4859 79.2841 23.0477C79.7132 22.6096 79.9536 22.0208 79.9536 21.4075C79.9536 20.7942 79.7132 20.2054 79.2841 19.7672C78.8549 19.3291 78.2711 19.0767 77.658 19.064L77.657 19.063Z" fill="black" fill-opacity="0.5"/>
</g>
<defs>
<clipPath id="clip0_444_6">
<rect width="80" height="80" fill="white"/>
</clipPath>
</defs>
</svg>
