<svg width="69" height="80" viewBox="0 0 69 80" fill="none" xmlns="http://www.w3.org/2000/svg">
<g clip-path="url(#clip0_444_22)">
<path d="M68.045 21.706V21.644C68.01 20.876 67.987 20.062 67.973 19.158C67.9331 17.0226 67.0887 14.9809 65.6087 13.4411C64.1288 11.9012 62.1222 10.9766 59.99 10.852C50.79 10.339 43.677 7.33901 37.597 1.41401L37.545 1.36501C36.5985 0.488441 35.3561 0.00146484 34.066 0.00146484C32.776 0.00146484 31.5335 0.488441 30.587 1.36501L30.535 1.41401C24.455 7.34001 17.335 10.339 8.14201 10.853C6.00943 10.9766 4.0021 11.9007 2.52146 13.4405C1.04082 14.9803 0.196026 17.0222 0.156014 19.158C0.143014 20.058 0.119014 20.869 0.084014 21.643V21.788C-0.094986 31.167 -0.315986 42.84 3.58401 53.435C5.63673 59.1139 8.93983 64.2588 13.249 68.489C18.6572 73.56 25.1143 77.3795 32.163 79.677C32.4162 79.765 32.6752 79.8355 32.938 79.888C33.681 80.037 34.4461 80.037 35.189 79.888C35.4529 79.8352 35.7128 79.7644 35.967 79.676C43.0082 77.3733 49.4578 73.5523 54.86 68.483C59.1682 64.2504 62.4711 59.1045 64.525 53.425C68.445 42.801 68.223 31.101 68.045 21.706ZM60.121 51.801C56 62.968 47.595 70.637 34.418 75.245C34.3693 75.2616 34.3195 75.2749 34.269 75.285C34.1327 75.3122 33.9923 75.3122 33.856 75.285C33.8059 75.2749 33.7564 75.2616 33.708 75.245C20.517 70.645 12.108 62.981 7.98901 51.813C4.38901 42.047 4.58901 31.331 4.77401 21.878V21.826C4.81101 21.014 4.83501 20.163 4.84801 19.226C4.86687 18.2771 5.24316 17.3702 5.90168 16.6866C6.56019 16.0031 7.45242 15.5932 8.40001 15.539C13.2038 15.3379 17.9352 14.2972 22.38 12.464C26.6267 10.6545 30.4924 8.05745 33.773 4.81001C33.8526 4.73798 33.9562 4.6981 34.0635 4.6981C34.1709 4.6981 34.2744 4.73798 34.354 4.81001C37.6346 8.05708 41.4999 10.6541 45.746 12.464C50.1908 14.2971 54.9223 15.3378 59.726 15.539C60.6738 15.5935 61.566 16.0037 62.2244 16.6877C62.8827 17.3716 63.2587 18.2789 63.277 19.228C63.291 20.168 63.315 21.019 63.352 21.828C63.532 31.29 63.731 42.014 60.121 51.801Z" fill="black"/>
<path d="M34.061 20.064C30.1179 20.064 26.2633 21.2333 22.9846 23.424C19.706 25.6147 17.1506 28.7284 15.6416 32.3715C14.1327 36.0145 13.7378 40.0231 14.5071 43.8905C15.2764 47.7579 17.1752 51.3104 19.9634 54.0986C22.7517 56.8869 26.3041 58.7857 30.1715 59.5549C34.0389 60.3242 38.0476 59.9294 41.6906 58.4204C45.3336 56.9114 48.4473 54.356 50.638 51.0774C52.8288 47.7988 53.998 43.9442 53.998 40.001C53.992 34.7153 51.8895 29.6478 48.1519 25.9102C44.4143 22.1726 39.3468 20.0701 34.061 20.064V20.064ZM34.061 55.244C31.0462 55.2442 28.099 54.3504 25.5922 52.6756C23.0854 51.0008 21.1315 48.6202 19.9776 45.835C18.8238 43.0497 18.5218 39.9848 19.1098 37.0279C19.6978 34.071 21.1495 31.3548 23.2813 29.2229C25.413 27.0911 28.129 25.6392 31.0859 25.051C34.0428 24.4627 37.1077 24.7646 39.893 25.9182C42.6784 27.0719 45.0591 29.0256 46.7341 31.5324C48.409 34.0391 49.303 36.9862 49.303 40.001C49.2985 44.0422 47.6913 47.9165 44.8338 50.7741C41.9764 53.6317 38.1022 55.2393 34.061 55.244V55.244Z" fill="black"/>
<path d="M39.792 33.812L30.532 43.072L28.019 40.559C27.5789 40.1188 26.9819 39.8714 26.3594 39.8713C25.7368 39.8712 25.1398 40.1184 24.6995 40.5585C24.2593 40.9987 24.0119 41.5956 24.0118 42.2182C24.0117 42.8407 24.2589 43.4378 24.699 43.878L28.873 48.052C29.3132 48.4921 29.9101 48.7394 30.5325 48.7394C31.1549 48.7394 31.7519 48.4921 32.192 48.052L43.112 37.133C43.5521 36.6928 43.7993 36.0957 43.7993 35.4732C43.7992 34.8506 43.5518 34.2536 43.1115 33.8135C42.6713 33.3734 42.0742 33.1262 41.4517 33.1263C40.8291 33.1264 40.2321 33.3738 39.792 33.814V33.812Z" fill="black" fill-opacity="0.5"/>
</g>
<defs>
<clipPath id="clip0_444_22">
<rect width="68.124" height="80" fill="white"/>
</clipPath>
</defs>
</svg>
