<svg width="80" height="80" viewBox="0 0 80 80" fill="none" xmlns="http://www.w3.org/2000/svg">
<g clip-path="url(#clip0_444_33)">
<path d="M77.629 24.982H72.887C72.2582 24.982 71.6551 25.2318 71.2104 25.6764C70.7658 26.1211 70.516 26.7242 70.516 27.353C70.516 27.9818 70.7658 28.5849 71.2104 29.0295C71.6551 29.4742 72.2582 29.724 72.887 29.724H77.629C78.2578 29.724 78.8609 29.4742 79.3055 29.0295C79.7502 28.5849 80 27.9818 80 27.353C80 26.7242 79.7502 26.1211 79.3055 25.6764C78.8609 25.2318 78.2578 24.982 77.629 24.982V24.982Z" fill="black" fill-opacity="0.5"/>
<path d="M72.491 16.281L76.598 13.91C77.1426 13.5956 77.54 13.0777 77.7028 12.4703C77.8656 11.8628 77.7804 11.2156 77.466 10.671C77.1516 10.1264 76.6337 9.72895 76.0263 9.56617C75.4189 9.40339 74.7716 9.48858 74.227 9.80299L70.12 12.174C69.8503 12.3297 69.614 12.5369 69.4244 12.784C69.2349 13.031 69.0958 13.313 69.0152 13.6137C68.9346 13.9145 68.914 14.2282 68.9547 14.5369C68.9953 14.8456 69.0963 15.1433 69.252 15.413C69.4077 15.6827 69.615 15.919 69.862 16.1086C70.109 16.2982 70.391 16.4372 70.6918 16.5178C70.9925 16.5984 71.3062 16.619 71.6149 16.5783C71.9237 16.5377 72.2213 16.4367 72.491 16.281V16.281Z" fill="black" fill-opacity="0.5"/>
<path d="M76.598 40.927L72.491 38.556C71.9464 38.2416 71.2992 38.1564 70.6918 38.3192C70.0843 38.4819 69.5664 38.8794 69.252 39.424C68.9376 39.9686 68.8524 40.6158 69.0152 41.2232C69.178 41.8307 69.5754 42.3486 70.12 42.663L74.227 45.034C74.7716 45.3484 75.4189 45.4336 76.0263 45.2708C76.6337 45.108 77.1516 44.7106 77.466 44.166C77.7804 43.6214 77.8656 42.9741 77.7028 42.3667C77.54 41.7593 77.1426 41.2414 76.598 40.927Z" fill="black" fill-opacity="0.5"/>
<path d="M7.114 29.724C7.74283 29.724 8.3459 29.4742 8.79055 29.0295C9.2352 28.5849 9.485 27.9818 9.485 27.353C9.485 26.7242 9.2352 26.1211 8.79055 25.6764C8.3459 25.2318 7.74283 24.982 7.114 24.982H2.371C1.74217 24.982 1.1391 25.2318 0.69445 25.6764C0.249801 26.1211 0 26.7242 0 27.353C0 27.9818 0.249801 28.5849 0.69445 29.0295C1.1391 29.4742 1.74217 29.724 2.371 29.724H7.114Z" fill="black" fill-opacity="0.5"/>
<path d="M9.87999 12.174L5.77299 9.80301C5.50332 9.64713 5.20559 9.54589 4.8968 9.50507C4.58801 9.46425 4.2742 9.48466 3.97329 9.56513C3.67238 9.64559 3.39026 9.78453 3.14305 9.97402C2.89584 10.1635 2.68837 10.3998 2.53249 10.6695C2.37662 10.9392 2.27538 11.2369 2.23456 11.5457C2.19375 11.8545 2.21415 12.1683 2.29462 12.4692C2.37508 12.7701 2.51402 13.0522 2.70351 13.2994C2.893 13.5467 3.12933 13.7541 3.39899 13.91L7.50599 16.281C7.77566 16.4367 8.07336 16.5377 8.38208 16.5784C8.69079 16.619 9.00449 16.5984 9.30526 16.5178C9.60603 16.4372 9.88798 16.2982 10.135 16.1086C10.382 15.919 10.5893 15.6827 10.745 15.413C10.9007 15.1433 11.0017 14.8456 11.0424 14.5369C11.083 14.2282 11.0624 13.9145 10.9818 13.6137C10.9012 13.313 10.7622 13.031 10.5726 12.784C10.383 12.537 10.1467 12.3297 9.87699 12.174H9.87999Z" fill="black" fill-opacity="0.5"/>
<path d="M7.50902 38.556L3.39902 40.927C2.8544 41.2414 2.45698 41.7593 2.2942 42.3667C2.13142 42.9741 2.2166 43.6214 2.53102 44.166C2.84543 44.7106 3.36332 45.108 3.97075 45.2708C4.57818 45.4336 5.2254 45.3484 5.77002 45.034L9.87702 42.663C10.4216 42.3486 10.8191 41.8307 10.9818 41.2232C11.1446 40.6158 11.0594 39.9686 10.745 39.424C10.4306 38.8794 9.91272 38.4819 9.30529 38.3192C8.69786 38.1564 8.05064 38.2416 7.50602 38.556H7.50902Z" fill="black" fill-opacity="0.5"/>
<path d="M40.005 0C34.4711 0.0313018 29.0768 1.73999 24.5341 4.90051C19.9914 8.06103 16.5139 12.5248 14.5607 17.7026C12.6074 22.8804 12.2702 28.5288 13.5935 33.9022C14.9169 39.2756 17.8386 44.1215 21.973 47.8C23.4921 49.1588 24.7066 50.8234 25.537 52.6847C26.3673 54.546 26.7947 56.5619 26.791 58.6V65.163C26.7906 66.1957 27.0823 67.2074 27.6322 68.0815C28.1821 68.9555 28.9679 69.6563 29.899 70.103V72.975C29.8977 74.833 30.633 76.6158 31.9438 77.9326C33.2546 79.2494 35.034 79.9929 36.892 80H43.105C44.964 79.9929 46.7443 79.2486 48.0553 77.9305C49.3663 76.6124 50.1009 74.8281 50.098 72.969V70.1C51.0291 69.6533 51.8149 68.9525 52.3648 68.0785C52.9147 67.2044 53.2063 66.1927 53.206 65.16V58.594C53.2023 56.5559 53.6297 54.54 54.46 52.6787C55.2903 50.8174 56.5049 49.1528 58.024 47.794C62.1554 44.1157 65.0748 39.2716 66.3973 33.9004C67.7197 28.5293 67.383 22.8834 65.4316 17.7075C63.4802 12.5316 60.0058 8.06874 55.4665 4.90753C50.9273 1.74632 45.5364 0.0352525 40.005 0V0ZM45.444 72.969C45.4451 73.5887 45.2002 74.1836 44.7632 74.623C44.3262 75.0625 43.7327 75.3106 43.113 75.313H36.897C36.2773 75.3106 35.6838 75.0625 35.2468 74.623C34.8098 74.1836 34.5649 73.5887 34.566 72.969V70.625H45.444V72.969ZM48.552 65.157C48.5523 65.3635 48.4706 65.5617 48.325 65.7081C48.1793 65.8545 47.9815 65.9372 47.775 65.938H32.235C32.0285 65.9372 31.8307 65.8545 31.685 65.7081C31.5394 65.5617 31.4577 65.3635 31.458 65.157V60.938H48.552V65.157ZM37.669 42.188H36.892C35.033 42.1809 33.2527 41.4366 31.9417 40.1185C30.6307 38.8004 29.8961 37.0161 29.899 35.157V34.376H30.676C32.535 34.3831 34.3153 35.1274 35.6263 36.4455C36.9373 37.7636 37.6719 39.5479 37.669 41.407V42.188ZM40.55 25.53L40.001 26.082L39.451 25.53C38.141 24.2068 37.4061 22.42 37.4061 20.558C37.4061 18.696 38.141 16.9092 39.451 15.586L40.001 15.034L40.55 15.587C41.8597 16.91 42.5943 18.6964 42.5943 20.558C42.5943 22.4196 41.8597 24.206 40.55 25.529V25.53ZM42.332 41.407C42.3291 39.5479 43.0637 37.7636 44.3747 36.4455C45.6857 35.1274 47.4659 34.3831 49.325 34.376H50.102V35.157C50.1049 37.0161 49.3703 38.8004 48.0593 40.1185C46.7483 41.4366 44.968 42.1809 43.109 42.188H42.332V41.407ZM54.938 44.287C51.4712 47.3834 49.2508 51.6365 48.692 56.251H42.332V46.875H43.109C46.2075 46.8631 49.1748 45.6225 51.3598 43.4256C53.5448 41.2286 54.7691 38.2545 54.764 35.156V32.031C54.7649 31.724 54.7053 31.4199 54.5887 31.1359C54.472 30.8519 54.3006 30.5938 54.0841 30.3761C53.8676 30.1584 53.6104 29.9855 53.3271 29.8673C53.0438 29.749 52.74 29.6878 52.433 29.687H49.325C46.7998 29.685 44.3435 30.5105 42.332 32.037V30.367L43.847 28.844C46.0303 26.6387 47.2551 23.6608 47.2551 20.5575C47.2551 17.4542 46.0303 14.4763 43.847 12.271L41.647 10.061C41.4311 9.84295 41.1741 9.66985 40.8909 9.55172C40.6077 9.43359 40.3039 9.37276 39.997 9.37276C39.6901 9.37276 39.3863 9.43359 39.1031 9.55172C38.8199 9.66985 38.5629 9.84295 38.347 10.061L36.147 12.271C33.9637 14.4763 32.7389 17.4542 32.7389 20.5575C32.7389 23.6608 33.9637 26.6387 36.147 28.844L37.662 30.367V32.037C35.6505 30.5104 33.1942 29.685 30.669 29.687H27.568C27.261 29.6878 26.9572 29.749 26.6739 29.8673C26.3906 29.9855 26.1334 30.1584 25.9169 30.3761C25.7004 30.5938 25.529 30.8519 25.4123 31.1359C25.2956 31.4199 25.2361 31.724 25.237 32.031V35.156C25.2319 38.2545 26.4562 41.2286 28.6412 43.4256C30.8262 45.6225 33.7935 46.8631 36.892 46.875H37.669V56.25H31.305C30.7461 51.6355 28.5257 47.3825 25.059 44.286C21.6347 41.2544 19.2138 37.2526 18.1182 32.8123C17.0225 28.372 17.3039 23.7034 18.925 19.4269C20.546 15.1503 23.43 11.4683 27.1936 8.8699C30.9573 6.27154 35.4225 4.87992 39.996 4.87992C44.5695 4.87992 49.0347 6.27154 52.7984 8.8699C56.562 11.4683 59.446 15.1503 61.067 19.4269C62.6881 23.7034 62.9695 28.372 61.8738 32.8123C60.7782 37.2526 58.3573 41.2544 54.933 44.286L54.938 44.287Z" fill="black"/>
</g>
<defs>
<clipPath id="clip0_444_33">
<rect width="80" height="80" fill="white"/>
</clipPath>
</defs>
</svg>
