<svg id="Group_13" data-name="Group 13" xmlns="http://www.w3.org/2000/svg" width="80.429" height="80.429" viewBox="0 0 80.429 80.429">
  <g id="play-circle_bulk" data-name="play-circle/bulk">
    <g id="vuesax_bulk_play-circle" data-name="vuesax/bulk/play-circle">
      <g id="play-circle">
        <path id="Vector" d="M67.024,33.512A33.512,33.512,0,1,1,33.512,0,33.512,33.512,0,0,1,67.024,33.512Z" transform="translate(6.602 6.702)" opacity="0.4"/>
        <path id="Vector-2" data-name="Vector" d="M21.314,6.652,11.6,1.056a7.624,7.624,0,0,0-7.741,0A7.657,7.657,0,0,0,0,7.758V18.984a7.723,7.723,0,0,0,7.708,7.741,7.567,7.567,0,0,0,3.854-1.039l9.718-5.6a7.657,7.657,0,0,0,3.854-6.7A7.479,7.479,0,0,0,21.314,6.652Z" transform="translate(28.854 27.631)"/>
        <path id="Vector-3" data-name="Vector" d="M0,0H80.429V80.429H0Z" fill="none" opacity="0"/>
      </g>
    </g>
  </g>
</svg>
